<svg id="Layer_1" data-name="Layer 1" xmlns="http://www.w3.org/2000/svg" viewBox="0 0 491.27 618.38">
  <title>bolt</title>
  <g>
    <polygon points="156.41 316.72 143.61 301.65 143.61 301.65 156.41 316.72" style="fill: none"/>
    <path d="M491.27,209.6A23.24,23.24,0,0,0,477,188.17H265.26a9.28,9.28,0,0,0-8.65,12.65L322.81,371a15,15,0,0,1,.54,1.7,14.62,14.62,0,0,1-14,18.22l-65.36.55,3.74,11.71,47.2,147.94a5,5,0,0,1-8.59,4.76L156.53,403.22l-25.9-30.48-30-35.25a10.81,10.81,0,0,1,8.24-17.81h92.68l-7.73-19.34L80.08,15.79A25.09,25.09,0,0,0,56.8,0L30,0A30,30,0,0,0,0,30V372.74C0,508.4,110,618.38,245.63,618.38s245.63-110,245.63-245.63c0-2.31,0-4.6-.1-6.89a7.79,7.79,0,0,0,.1-1V209.6Z" style="fill: #151515"/>
  </g>
  <path d="M149.11,301.21" style="fill: #151515"/>
</svg>
